<svg version="1.1" id="number-0" xmlns="http://www.w3.org/2000/svg" xmlns:xlink="http://www.w3.org/1999/xlink" x="0px" y="0px" viewBox="0 0 640 640" enable-background="new 0 0 640 640" xml:space="preserve"><path fill="#FFFFFF" d="M468.1,24.2v-8H171.9c-21.5,0-42,4.4-60.6,12.2C83.3,40.3,59.6,60,42.8,84.8c-16.8,24.8-26.6,54.8-26.6,87 l0,296.2c0,21.5,4.4,42,12.2,60.6c11.8,27.9,31.6,51.7,56.4,68.5c24.8,16.8,54.8,26.6,87,26.6h296.2c21.5,0,42-4.4,60.6-12.2 c27.9-11.8,51.7-31.6,68.5-56.4c16.8-24.8,26.6-54.8,26.6-87V171.9c0-21.5-4.4-42-12.2-60.6c-11.8-27.9-31.6-51.7-56.4-68.5 c-24.8-16.8-54.8-26.6-87-26.6L468.1,24.2v8c19.3,0,37.7,3.9,54.4,11c25.1,10.6,46.4,28.3,61.5,50.6c15.1,22.3,23.8,49.1,23.8,78.1 v296.2c0,19.3-3.9,37.7-11,54.4c-10.6,25.1-28.3,46.4-50.6,61.5c-22.3,15.1-49.1,23.8-78.1,23.8H171.9c-19.3,0-37.7-3.9-54.4-11 c-25.1-10.6-46.4-28.3-61.5-50.6c-15.1-22.3-23.8-49.1-23.8-78.1V171.9c0-19.3,3.9-37.7,11-54.4c10.6-25.1,28.3-46.4,50.6-61.5 c22.3-15.1,49.1-23.8,78.1-23.8h296.2V24.2z"/><g><path fill="#FFFFFF" d="M248.2,179.3l11.3,7.3c-6,12.5-12.3,21.2-18.8,26.3c-5.5,4.2-11.8,6.3-18.9,6.3c-8.6,0-20.4-3.5-35.3-10.5 c-13.5-6.5-23.5-9.7-30-9.7c-9.3,0-17.6,6-24.8,18l-11.5-6.8c9.1-21.9,21.3-32.9,36.8-32.9c7.9,0,19,3.2,33.3,9.7 c15.5,7,26.1,10.5,31.7,10.5c5.7,0,10.7-1.6,15-4.8C240.7,189.8,244.4,185.4,248.2,179.3z"/></g><g><path fill="#FFFFFF" d="M185.4,338.8c23,0,39.8,9.3,50.4,28c9.8,17.4,14.7,43.6,14.7,78.5c0,40-6.4,68.7-19.2,86.2 c-10.7,14.6-26.2,21.9-46.5,21.9c-23.3,0-40.1-9.5-50.5-28.5c-9.5-17.5-14.3-43.8-14.3-79c0-39.8,6.5-68.3,19.4-85.7 C149.8,345.9,165.2,338.8,185.4,338.8z M185.4,365.6c-11.7,0-19.7,6.5-24.1,19.5c-4.2,12.2-6.4,32.3-6.4,60.3 c0,32.1,2.7,54.1,8,65.9c4.4,10.1,11.7,15.1,21.9,15.1c11.9,0,20.2-6.8,24.7-20.3c4.1-12.3,6.1-32.5,6.1-60.7 c0-31.9-2.7-53.6-8-65.1C203.1,370.5,195.7,365.6,185.4,365.6z"/></g><g><path fill="#FFFFFF" d="M421.8,84.6c11.1,1.8,20,4,26.9,6.7c1.9,0.7,2.9,2,2.9,4c0,1.5-0.5,2.6-1.6,3.5c-1.4,1.2-2.7,3-4,5.7 c-0.3,0.8-0.8,1.9-1.5,3.5c-1.4,3.3-2.7,6.4-4,9.3c15.2-1.8,29.6-4.2,43-7.4c0.5-0.1,1-0.1,1.4-0.1c1.2,0,2,0.8,2.4,2.5 c1.4,5.5,2.2,11.1,2.4,17c0,0.3,0,0.5,0,0.7c0,1.7-1.3,2.7-4,3.1c-18.4,2.7-36.8,5.1-55.4,7.2c-7.8,12.5-13.7,21.2-17.6,26.2 l0.2,0.5c7.5-4.8,15.3-7.3,23.6-7.3c17,0,26.6,8.5,28.7,25.5c16.2-7.5,27.8-13,34.8-16.6c7.6-4,13.6-8.2,17.9-12.7 c7.3,7.7,12.8,14.6,16.6,20.8c1.2,1.9,1.8,3.7,1.8,5.2c0,1.8-1.2,2.9-3.6,3.3c-4.8,0.7-9.6,1.9-14.4,3.6 c-23.1,8.2-40.1,14.4-50.8,18.8v38.1c0,2.4-1.5,3.8-4.5,4.3c-5.2,0.8-10.7,1.2-16.7,1.2c-2.1,0-3.1-1.3-3.1-3.8 c0-13.5,0.1-23.1,0.2-28.7c-10.9,5.6-18.6,11.1-23,16.5c-3.7,4.5-5.5,9.4-5.5,14.9c0,10.8,10.9,16.3,32.8,16.3 c17.1,0,36.8-1.6,58.8-4.7c0.2,0,0.5,0,0.7,0c1.5,0,2.4,0.9,2.5,2.7c1.5,6.5,2.2,13,2.2,19.4c0,0.4,0,0.7,0,0.8 c0,2.4-0.9,3.6-2.7,3.6c-16,2.1-35.5,3.1-58.5,3.1c-39.5,0-59.3-13-59.3-39c0-12.1,4.4-22.8,13.2-32.2c7.8-8.3,20-16.8,36.7-25.4 c-0.4-6.4-1.6-10.7-3.6-13c-1.8-2.2-4.9-3.3-9.2-3.3c-0.3,0-0.8,0-1.4,0c-9.2,0.4-20,6.1-32.6,17.1c-7.3,7.2-15.2,15.7-23.6,25.7 c-1.2,1.4-2.1,2.1-2.9,2.1c-0.6,0-1.5-0.5-2.5-1.6c-6.7-6.7-11.2-11.9-13.5-15.6c-0.6-0.8-0.9-1.6-0.9-2.2c0-0.8,0.5-1.7,1.6-2.5 c21.5-19.1,38-38.7,49.5-58.6c-11,0.5-23.6,0.7-37.8,0.7c-1.8,0-2.9-1.3-3.3-3.8c-0.5-3-1.3-9.5-2.3-19.5 c7.5,0.3,15.5,0.5,23.8,0.5c10,0,20.2-0.3,30.6-0.8c2.8-7,5.2-13.8,7-20.3C421.2,94.3,421.8,89.5,421.8,84.6z"/></g><g><path fill="#FFFFFF" d="M392.8,347.5c13.8,1.5,23,2.8,27.3,4c3.4,0.9,5.1,2.6,5.1,5c0,0.8-0.3,2-0.8,3.3c-1,2.5-1.8,5.8-2.3,10.2 c-0.1,1.6-0.3,4.8-0.6,9.6c-0.2,4.2-0.5,8.1-0.7,11.7l2-0.7c0.6-0.3,1.2-0.5,1.6-0.5c1.8,0,3.9,1.8,6.3,5.4 c2.5,3.4,3.8,5.8,3.8,7.4c0,1.3-1.3,3.5-4,6.6c-4.7,6-8.8,11.7-12.5,17v7.4c22.4-18.5,45-27.7,67.8-27.7c19,0,33.9,6.3,44.8,18.8 c9.4,10.8,14.1,24.5,14.1,41.2c0,35.6-21,61-62.9,76.1c-1.2,0.6-2.6,0.9-4,0.9c-2.4,0-4.4-1.1-6.1-3.3c-5-5.9-11.2-11.1-18.7-15.6 c19.5-5.2,35.3-13,47.5-23.4c10.7-9.5,16-21.4,16-35.6c0-12.1-3.5-21.3-10.4-27.8c-6.2-5.8-14.4-8.8-24.8-8.8 c-11.1,0-22.1,2.9-33.2,8.8c-8.8,4.6-18.8,11.8-30.1,21.5c0.1,12,0.3,27.9,0.7,47.6c0.4,21.6,0.6,36,0.7,43c0,1.9-1,2.9-3.1,2.9 c-6.9,0.6-13.9,0.9-21,0.9c-1.8,0-2.7-0.8-2.7-2.5c0-0.2,0-0.5,0-0.8c0.2-18.1,0.7-42.5,1.3-73c-10.7,16-21.3,31.6-32,46.8 c-1.3,1.5-2.4,2.3-3.2,2.3c-0.8,0-1.7-0.5-2.7-1.4c-5-4.4-9.8-9.1-14.4-14.2c-0.9-0.7-1.4-1.6-1.4-2.7c0-0.9,0.5-1.8,1.4-2.8 c21.1-25.7,38.5-47.8,52-66.3c0-8.2,0.1-13.8,0.2-16.8c-13.5,4.2-22.5,7.2-27,8.8c-1.3,0.5-3,1.5-5.1,2.8c-1.3,0.8-2.2,1.3-2.7,1.3 c-1.8,0-3.3-1.4-4.7-4.3c-3.8-7.2-6.9-14.1-9.5-20.8c5.2-0.5,10.5-1.3,16-2.4c10.2-2.3,21.4-5.1,33.6-8.4c0.3-6.8,0.5-17,0.5-30.8 C395.1,360.8,394.4,354,392.8,347.5z"/></g></svg>
