<svg version="1.1" id="number-1" xmlns="http://www.w3.org/2000/svg" xmlns:xlink="http://www.w3.org/1999/xlink" x="0px" y="0px" viewBox="0 0 640 640" enable-background="new 0 0 640 640" xml:space="preserve"><path fill="#FFFFFF" d="M468.1,24.2v-8H171.9c-21.5,0-42,4.4-60.6,12.2C83.3,40.3,59.6,60,42.8,84.8c-16.8,24.8-26.6,54.8-26.6,87&#xD;&#xA;&#x9;l0,296.2c0,21.5,4.4,42,12.2,60.6c11.8,27.9,31.6,51.7,56.4,68.5c24.8,16.8,54.8,26.6,87,26.6h296.2c21.5,0,42-4.4,60.6-12.2&#xD;&#xA;&#x9;c27.9-11.8,51.7-31.6,68.5-56.4c16.8-24.8,26.6-54.8,26.6-87V171.9c0-21.5-4.4-42-12.2-60.6c-11.8-27.9-31.6-51.7-56.4-68.5&#xD;&#xA;&#x9;c-24.8-16.8-54.8-26.6-87-26.6L468.1,24.2v8c19.3,0,37.7,3.9,54.4,11c25.1,10.6,46.4,28.3,61.5,50.6c15.1,22.3,23.8,49.1,23.8,78.1&#xD;&#xA;&#x9;v296.2c0,19.3-3.9,37.7-11,54.4c-10.6,25.1-28.3,46.4-50.6,61.5c-22.3,15.1-49.1,23.8-78.1,23.8H171.9c-19.3,0-37.7-3.9-54.4-11&#xD;&#xA;&#x9;c-25.1-10.6-46.4-28.3-61.5-50.6c-15.1-22.3-23.8-49.1-23.8-78.1V171.9c0-19.3,3.9-37.7,11-54.4c10.6-25.1,28.3-46.4,50.6-61.5&#xD;&#xA;&#x9;c22.3-15.1,49.1-23.8,78.1-23.8h296.2V24.2z"/><g><path fill="#FFFFFF" d="M208.2,96.7L201,228.8h-23.9l-5.7-132.1H208.2z M205.9,248.1V280h-33.6v-31.8H205.9z"/></g><g><path fill="#FFFFFF" d="M205.1,340.9v182.2h38.6v26.4H132.1v-26.4h40.7V375.4c-11.1,7.6-23.9,13.7-38.3,18.4l-5.4-28.5&#xD;&#xA;&#x9;&#x9;c16.5-4.8,32.6-12.9,48.3-24.4H205.1z"/></g><g><path fill="#FFFFFF" d="M501.3,486.6c1.6-5.2,2.4-13.4,2.4-24.8c0-14.5-4.2-26-12.6-34.3c-7.5-7.5-17.6-11.3-30.2-11.3&#xD;&#xA;&#x9;&#x9;c-3.9,0-7.5,0.3-10.8,0.9c-9.5,33.4-20.2,60.1-32,80.3c3.5,4.7,6.9,8.9,10.4,12.6c-3.4,5.5-7.8,10.9-13.2,16.3&#xD;&#xA;&#x9;&#x9;c-0.8,0.8-1.7,1.2-2.4,1.2c-0.8,0-1.5-0.3-2.1-0.9c-3-3-5.6-6.1-7.8-9.2c-12,13.4-23.9,20.1-35.6,20.1c-9.4,0-16.7-3.4-21.9-10.2&#xD;&#xA;&#x9;&#x9;c-4.6-6-6.9-14.1-6.9-24.3c0-13.2,2.9-25.8,8.8-37.6c4.2-8.6,10.8-18.2,19.6-28.7c-2.5-11.2-4.8-23.2-6.7-35.9&#xD;&#xA;&#x9;&#x9;c-1.2-7.5-2.9-14.5-5-20.8c9.5,0.6,18.2,2.2,26.3,4.7c2.5,0.7,3.7,2,3.7,4c0,0.4,0,0.8-0.1,1.2c-0.4,1.4-0.6,2.7-0.6,3.9v2&#xD;&#xA;&#x9;&#x9;c0,7.5,1,15.8,2.9,25c11.4-8.5,24.9-15.3,40.6-20.3c1.8-8.7,2.8-17.5,3.1-26.3c0-7.7-0.5-13.3-1.4-17c12.3,1.8,21.7,3.9,28.3,6.3&#xD;&#xA;&#x9;&#x9;c2.4,1,3.6,2.4,3.6,4.3c0,1.2-0.3,2.3-0.9,3.3c-0.8,1.5-1.8,4.4-3.1,8.5c-0.3,1.2-1.5,6.9-3.6,17c2.5-0.3,4.7-0.5,6.7-0.5&#xD;&#xA;&#x9;&#x9;c21.1,0,37.5,5.8,49.1,17.4c13.1,12.7,19.6,29.9,19.6,51.6c0,12.5-1.9,24.5-5.7,36.1c6.8,5.2,13.2,11.2,19.1,17.8&#xD;&#xA;&#x9;&#x9;c0.9,0.9,1.4,1.7,1.4,2.3c0,0.6-0.3,1.3-0.9,2.2c-4.5,6.5-8.7,11.7-12.8,15.6c-0.8,0.8-1.5,1.2-2.3,1.2c-0.9,0-1.7-0.5-2.4-1.4&#xD;&#xA;&#x9;&#x9;c-4.7-5.5-9.7-10.5-15.1-15.1c-9.7,12.1-22.7,18.1-39,18.1c-11.4,0-20.4-3.1-27.1-9.2c-5.8-5.4-8.8-12.2-8.8-20.5&#xD;&#xA;&#x9;&#x9;c0-9.9,3.7-18.1,11.2-24.5c6.5-5.5,14.4-8.3,23.8-8.3C482.1,479.3,492.2,481.7,501.3,486.6z M374.6,462.2&#xD;&#xA;&#x9;&#x9;c-9.5,13.2-14.2,25.9-14.2,38.3c0,8.3,2.7,12.5,8.1,12.5c6.8,0,13.7-5,20.5-15.1C381.8,482.7,377,470.9,374.6,462.2z M424.2,422.1&#xD;&#xA;&#x9;&#x9;c-12.9,5.5-23.8,12.5-32.5,21c2.9,12.5,6.9,23.8,12,34C410.5,464.3,417.3,445.9,424.2,422.1z M492.5,507.1&#xD;&#xA;&#x9;&#x9;c-5.8-5.2-12.9-7.7-21.5-7.7c-4.7,0-8.3,1.2-11,3.7c-2.2,2-3.2,4.4-3.2,7.2c0,6.8,4.7,10.2,14.2,10.2&#xD;&#xA;&#x9;&#x9;C480.6,520.4,487.8,516,492.5,507.1z"/></g></svg>
