<svg version="1.1" id="number-2" xmlns="http://www.w3.org/2000/svg" xmlns:xlink="http://www.w3.org/1999/xlink" x="0px" y="0px" viewBox="0 0 640 640" enable-background="new 0 0 640 640" xml:space="preserve"><path fill="#FFFFFF" d="M468.1,24.2v-8H171.9c-21.5,0-42,4.4-60.6,12.2C83.3,40.3,59.6,60,42.8,84.8c-16.8,24.8-26.6,54.8-26.6,87&#xD;&#xA;&#x9;l0,296.2c0,21.5,4.4,42,12.2,60.6c11.8,27.9,31.6,51.7,56.4,68.5c24.8,16.8,54.8,26.6,87,26.6h296.2c21.5,0,42-4.4,60.6-12.2&#xD;&#xA;&#x9;c27.9-11.8,51.7-31.6,68.5-56.4c16.8-24.8,26.6-54.8,26.6-87V171.9c0-21.5-4.4-42-12.2-60.6c-11.8-27.9-31.6-51.7-56.4-68.5&#xD;&#xA;&#x9;c-24.8-16.8-54.8-26.6-87-26.6L468.1,24.2v8c19.3,0,37.7,3.9,54.4,11c25.1,10.6,46.4,28.3,61.5,50.6c15.1,22.3,23.8,49.1,23.8,78.1&#xD;&#xA;&#x9;v296.2c0,19.3-3.9,37.7-11,54.4c-10.6,25.1-28.3,46.4-50.6,61.5c-22.3,15.1-49.1,23.8-78.1,23.8H171.9c-19.3,0-37.7-3.9-54.4-11&#xD;&#xA;&#x9;c-25.1-10.6-46.4-28.3-61.5-50.6c-15.1-22.3-23.8-49.1-23.8-78.1V171.9c0-19.3,3.9-37.7,11-54.4c10.6-25.1,28.3-46.4,50.6-61.5&#xD;&#xA;&#x9;c22.3-15.1,49.1-23.8,78.1-23.8h296.2V24.2z"/><g><path fill="#FFFFFF" d="M182,93.1L166.4,130h16.8v31.8h-33.3V130l17.3-36.9H182z M228.5,93.1L213,130h16.7v31.8h-33.3V130&#xD;&#xA;&#x9;&#x9;l17.3-36.9H228.5z"/></g><g><path fill="#FFFFFF" d="M121.9,396.1c2.5-19.5,10.2-34.3,23.2-44.4c11-8.6,24.5-12.9,40.7-12.9c20.2,0,35.9,5.5,46.9,16.4&#xD;&#xA;&#x9;&#x9;c10,9.8,15,22.9,15,39.4c0,12.4-3.4,24-10.3,34.9c-6.2,9.7-16.7,21.5-31.6,35.3c-26.2,23.4-43,42.6-50.5,57.6h93.2v27.2H120v-24.1&#xD;&#xA;&#x9;&#x9;c11.8-24.6,31.5-50.2,59.3-76.9c14.1-13.6,23.4-24.3,27.7-32.1c3.6-6.5,5.4-13.8,5.4-22c0-9.6-2.8-17-8.4-22.1&#xD;&#xA;&#x9;&#x9;c-4.8-4.4-11.1-6.6-18.8-6.6c-17.9,0-27.8,12.5-29.4,37.5L121.9,396.1z"/></g><g><path fill="#FFFFFF" d="M394.9,484.5c1.9,7.5,4.6,13.4,8,17.9c1.5,1.7,2.2,3.1,2.2,4.3c0,1.5-0.7,3-2.1,4.7&#xD;&#xA;&#x9;&#x9;c-3.8,4.8-7.6,8.6-11.4,11.3c-7.2,5.8-13.8,8.8-19.8,8.8c-15.2,0-26-10.4-32.4-31.1c-0.2-1.1-0.3-1.9-0.3-2.4&#xD;&#xA;&#x9;&#x9;c0-0.7,0.4-1.4,1.2-2.1c3.3-3.3,8.1-7.3,14.3-12.1c0.8-0.8,1.6-1.2,2.2-1.2c0.6,0,1.2,0.7,1.6,2.1c5.1,12.5,9.7,18.7,13.7,18.7&#xD;&#xA;&#x9;&#x9;c2.8,0,5.6-1.1,8.3-3.3C385.9,495.4,390.7,490.2,394.9,484.5z M408,512.7c12.4,5.2,23.7,7.7,34,7.7c11.5,0,17.3-4.5,17.3-13.5&#xD;&#xA;&#x9;&#x9;c0-4.2-1.8-8.3-5.3-12.2c-2.8-3.2-8.8-8.7-18.1-16.3c-8.1-6.7-13.7-12.9-16.8-18.6c-2.5-4.5-3.7-9.5-3.7-14.8&#xD;&#xA;&#x9;&#x9;c0-12.1,5.4-23.9,16.3-35.4c7.6,5.2,13.2,9.5,16.8,12.9c0.6,0.7,0.9,1.3,0.9,2c0,0.1-0.5,0.9-1.4,2.5c-4.6,5.5-6.9,11.2-6.9,16.8&#xD;&#xA;&#x9;&#x9;c0,3,1.6,6.2,4.7,9.5c2.5,2.6,7.4,6.8,14.9,12.7c11.1,8.6,18.6,16.8,22.7,24.5c3.2,5.7,4.7,12,4.7,18.8c0,12.3-5.2,21.8-15.6,28.6&#xD;&#xA;&#x9;&#x9;c-8.1,5.3-17.6,8-28.6,8c-10,0-18.7-1.3-26.1-3.8c-2.3-0.8-3.5-2.3-3.7-4.7C412.9,525.7,410.8,517.5,408,512.7z M415.2,373.9&#xD;&#xA;&#x9;&#x9;c7.1-10.8,11.4-17.2,12.9-19.4c0.7-1.2,1.7-1.7,3-1.7c0.5,0,1.1,0.1,1.7,0.3c18.1,6.2,34.4,14,48.7,23.4c1.5,0.9,2.2,2.1,2.2,3.6&#xD;&#xA;&#x9;&#x9;c0,0.8-0.2,1.6-0.7,2.5c-1.2,3-4.8,8.7-10.7,17c-1.1,1.6-2.2,2.4-3.2,2.4c-0.9,0-2-0.5-3.3-1.6&#xD;&#xA;&#x9;&#x9;C450.6,389.7,433.8,380.9,415.2,373.9z M494.3,463.2c2.8-2.3,8.7-6.6,17.4-12.9c0.2-0.1,0.7-0.3,1.5-0.7c0.3-0.2,0.6-0.2,0.9-0.2&#xD;&#xA;&#x9;&#x9;c0.5,0,1,0.3,1.6,0.9c16.1,13.2,28.2,28,36.2,44.4c0.5,0.8,0.8,1.6,0.8,2.2c0,0.8-0.6,1.8-1.7,3c-3.5,4-9.3,8.6-17.3,13.7&#xD;&#xA;&#x9;&#x9;c-0.7,0.5-1.3,0.7-2,0.7c-1.2,0-2.2-0.9-3-2.7C520.5,492.6,509,476.5,494.3,463.2z"/></g></svg>
