<svg version="1.1" id="number-3" xmlns="http://www.w3.org/2000/svg" xmlns:xlink="http://www.w3.org/1999/xlink" x="0px" y="0px" viewBox="0 0 640 640" enable-background="new 0 0 640 640" xml:space="preserve"><path fill="#FFFFFF" d="M468.1,24.2v-8H171.9c-21.5,0-42,4.4-60.6,12.2C83.3,40.3,59.6,60,42.8,84.8c-16.8,24.8-26.6,54.8-26.6,87&#xD;&#xA;&#x9;l0,296.2c0,21.5,4.4,42,12.2,60.6c11.8,27.9,31.6,51.7,56.4,68.5c24.8,16.8,54.8,26.6,87,26.6h296.2c21.5,0,42-4.4,60.6-12.2&#xD;&#xA;&#x9;c27.9-11.8,51.7-31.6,68.5-56.4c16.8-24.8,26.6-54.8,26.6-87V171.9c0-21.5-4.4-42-12.2-60.6c-11.8-27.9-31.6-51.7-56.4-68.5&#xD;&#xA;&#x9;c-24.8-16.8-54.8-26.6-87-26.6L468.1,24.2v8c19.3,0,37.7,3.9,54.4,11c25.1,10.6,46.4,28.3,61.5,50.6c15.1,22.3,23.8,49.1,23.8,78.1&#xD;&#xA;&#x9;v296.2c0,19.3-3.9,37.7-11,54.4c-10.6,25.1-28.3,46.4-50.6,61.5c-22.3,15.1-49.1,23.8-78.1,23.8H171.9c-19.3,0-37.7-3.9-54.4-11&#xD;&#xA;&#x9;c-25.1-10.6-46.4-28.3-61.5-50.6c-15.1-22.3-23.8-49.1-23.8-78.1V171.9c0-19.3,3.9-37.7,11-54.4c10.6-25.1,28.3-46.4,50.6-61.5&#xD;&#xA;&#x9;c22.3-15.1,49.1-23.8,78.1-23.8h296.2V24.2z"/><g><path fill="#FFFFFF" d="M239,96.7l-10.4,50.8h26.8l-5,21.9h-26.5l-7.5,37.7h27.8L239,229h-26.9l-10.6,51h-12.1l10.6-51h-36.1&#xD;&#xA;&#x9;&#x9;l-11.1,51h-12.1l10.8-51h-26.9l5.2-21.9h26l7.8-37.7h-27.9l5.2-21.9h27.2l10.4-50.8h12l-10.4,50.8h36.2L227,96.7H239z M212.1,169.3&#xD;&#xA;&#x9;&#x9;h-36.7l-7.7,37.7h36.8L212.1,169.3z"/></g><g><path fill="#FFFFFF" d="M120.7,383.5c4.2-15.4,12.4-27,24.7-34.7c10.5-6.6,23.2-9.9,38.1-9.9c20,0,35.8,5.6,47.3,16.7&#xD;&#xA;&#x9;&#x9;c9.9,9.5,14.9,21.3,14.9,35.4c0,13.2-3.9,24-11.8,32.5c-7,7.4-16.3,12.2-27.8,14.2v1.9c14.9,3.2,26.2,9.8,33.8,19.9&#xD;&#xA;&#x9;&#x9;c6.6,8.8,9.9,19.5,9.9,32.4c0,19.6-6.9,35.2-20.7,46.7c-11.9,10-27.1,15-45.6,15c-35.1,0-57.1-15.3-65.9-45.9l33.3-9.8&#xD;&#xA;&#x9;&#x9;c2.5,11.1,6.6,18.8,12.3,23.3c5,4,11.6,6,20,6c10.5,0,18.6-3.5,24.3-10.5c5-6.2,7.6-14.4,7.6-24.5c0-25-13.4-37.5-40.2-37.5H159&#xD;&#xA;&#x9;&#x9;v-27.7h14.3c25.4,0,38.1-10.9,38.1-32.6c0-10-2.9-17.5-8.8-22.5c-5-4.3-11.5-6.5-19.8-6.5c-8,0-14.6,2.7-19.8,8&#xD;&#xA;&#x9;&#x9;c-4.8,5-7.8,11.8-9,20.6L120.7,383.5z"/></g><g><path fill="#FFFFFF" d="M413.5,121.9c12.2,1.9,20.1,3.5,23.5,4.7c2.8,0.7,4.3,2,4.3,4c0,1.2-0.6,2.5-1.8,4&#xD;&#xA;&#x9;&#x9;c-0.6,0.8-1.5,2.9-2.7,6.3c-0.2,1.1-0.5,2.3-0.8,3.7c-0.3,1.5-0.5,2.5-0.6,3c18.5-1.8,33.9-4.2,46.4-7.4c0.9-0.2,1.7-0.3,2.2-0.3&#xD;&#xA;&#x9;&#x9;c1.4,0,2.2,0.9,2.5,2.7c1.1,4.7,1.6,9,1.6,12.8c0,1.7-0.3,2.8-1,3.5c-0.6,0.5-1.8,0.9-3.5,1.3c-16.5,3.3-33.9,5.7-52,7.3&#xD;&#xA;&#x9;&#x9;c-0.5,4.8-0.9,10.8-1.2,17.8c6.5-1.9,15.3-3.2,26.4-3.8c1.8-5.2,2.7-9.7,2.9-13.7c9.4,2.9,15.3,5.2,17.6,6.9c2.7,1.5,4,3,4,4.5&#xD;&#xA;&#x9;&#x9;c0,0.9-0.5,1.8-1.4,2.8l-1.8,2.9c12.8,2.6,22.5,8.6,29.3,17.9c5.8,7.9,8.7,17.2,8.7,27.9c0,12.9-5,24.3-15.1,34.1&#xD;&#xA;&#x9;&#x9;c-8.7,8.5-20.1,14.8-34.3,18.8c-2,0.5-3.4,0.8-4.3,0.8c-1.5,0-3.2-1.2-5-3.5c-2.9-5-7.2-9.2-12.9-12.7c11.5-2.6,22.7-7.6,33.5-14.9&#xD;&#xA;&#x9;&#x9;c9.5-6.6,14.2-15.6,14.2-27c0-6.6-2-12.3-6-17.1c-3.6-4.2-8.5-7.1-14.8-8.9c-11.1,19.9-22.2,35.9-33.5,48c0.6,2.8,1.5,5.7,2.8,8.4&#xD;&#xA;&#x9;&#x9;c0.2,0.6,0.3,1.1,0.3,1.5c0,0.8-0.6,1.7-1.7,2.5c-5.3,3.7-9.3,6.2-12.1,7.4c-1,0.4-1.8,0.6-2.4,0.6c-1.1,0-1.9-0.7-2.5-2.1&#xD;&#xA;&#x9;&#x9;c-0.8-1.6-1.6-3.6-2.5-5.9c-12.8,8.4-23.4,12.6-32,12.6c-7.1,0-12.5-2.4-16.4-7.2c-3.4-4.2-5.1-9.7-5.1-16.5&#xD;&#xA;&#x9;&#x9;c0-11.5,4.2-22.5,12.7-33.1c7.5-9.4,17.6-17.6,30.6-24.8c0.4-11.3,0.7-18.8,0.9-22.6c-3.2,0.2-8.1,0.2-14.9,0.2&#xD;&#xA;&#x9;&#x9;c-3,0-7.5-0.2-13.5-0.5c-1.8-0.2-3-0.5-3.3-1c-0.5-0.6-0.8-2-0.9-4.2c-0.2-2.2-0.5-4.8-0.7-8.1c-0.2-3.3-0.3-5.6-0.5-6.8&#xD;&#xA;&#x9;&#x9;c5.9,0.7,12.9,1,21,1c4.7,0,9.7-0.1,14.9-0.3c0.8-4.7,1.2-9.9,1.2-15.6c0.1-1.4,0.1-2.7,0.1-4C413.9,126.3,413.8,123.6,413.5,121.9&#xD;&#xA;&#x9;&#x9;z M409.9,211.6c-7.6,4.7-13.5,10.7-17.5,18c-3.2,5.7-4.7,11.2-4.7,16.4c0,3.9,1.7,5.9,5.2,5.9c4.3,0,11.1-3.5,20.4-10.5&#xD;&#xA;&#x9;&#x9;C411.4,231.2,410.3,221.3,409.9,211.6z M431.1,228.4c7.2-8.7,13.8-18.8,19.8-30.5c-5.5,0.4-12.7,2-21.7,4.7&#xD;&#xA;&#x9;&#x9;C429.5,213.3,430.1,221.9,431.1,228.4z"/></g><g><path fill="#FFFFFF" d="M410.5,347.9c12.6,1.5,21.8,3.3,27.7,5.4c2.8,1,4.3,2.4,4.3,4.3c0,1.5-0.4,2.8-1.2,3.8&#xD;&#xA;&#x9;&#x9;c-1.5,1.8-2.7,4.7-3.3,8.5c-0.2,1.2-0.6,3.3-1,6.3c-0.3,2.2-0.6,4-0.9,5.4c20.8-2,41.3-5.3,61.5-9.9c0.6-0.2,1.2-0.2,1.6-0.2&#xD;&#xA;&#x9;&#x9;c1.2,0,2,0.9,2.4,2.7c1.5,6.6,2.3,12,2.3,16c0,2.5-1.7,4.1-5,4.7c-23,4.7-45.3,8-67,9.9c-1,9.7-1.6,17.6-1.7,23.9&#xD;&#xA;&#x9;&#x9;c9.5-3.2,21.6-5,36.2-5.2c2.5-6.7,3.8-12.5,3.9-17.3c10.2,3.2,17.2,6.1,21,8.8c2.8,1.8,4.3,3.6,4.3,5.2c0,0.9-0.5,1.9-1.4,2.9&#xD;&#xA;&#x9;&#x9;c-0.7,0.6-1.7,2.2-3,4.6c16.5,4.4,28.8,12,37.1,22.8c7.5,9.6,11.2,21.2,11.2,34.8c0,17.5-7,32.3-21.1,44.5&#xD;&#xA;&#x9;&#x9;c-11.2,9.8-26.1,17.1-44.5,22c-1.6,0.5-2.9,0.7-3.9,0.7c-2.6,0-4.8-1.7-6.5-5.1c-1.7-3.4-6.3-8.3-14-14.7&#xD;&#xA;&#x9;&#x9;c8.8-1.8,17.6-4.6,26.5-8.3c7.4-3.1,13.2-6.1,17.3-9c12.6-9.2,18.9-21,18.9-35.4c0-9.5-3.3-17.5-9.8-23.9&#xD;&#xA;&#x9;&#x9;c-5.1-4.9-11.5-8.4-19.4-10.4c-12.5,23.8-27.4,44.5-44.6,61.8c0.5,1.7,1.8,5.3,4.2,10.7c0.5,0.9,0.7,1.7,0.7,2.4&#xD;&#xA;&#x9;&#x9;c0,1.1-0.8,2.2-2.5,3.5c-4.7,3.5-9.4,6.2-14.2,8.2c-1,0.5-1.8,0.8-2.3,0.8c-0.8,0-1.6-0.7-2.4-2c-1.5-2.5-2.8-5.6-3.9-9.2&#xD;&#xA;&#x9;&#x9;c-16.5,11.4-30.2,17.1-41.2,17.1c-8.6,0-15.3-2.9-20-8.8c-4.2-5.2-6.2-12-6.2-20.5c0-15.4,6.3-30.5,18.8-45.2&#xD;&#xA;&#x9;&#x9;c10.1-11.8,22.2-21.2,36.5-28.3c0.2-8.5,0.6-18.3,1.2-29.5c-5.8,0.2-11,0.3-15.8,0.3l-8.4-0.1c-7.2,0-11.7-0.2-13.5-0.5&#xD;&#xA;&#x9;&#x9;c-2.6-0.2-4-2-4.3-5.4c-0.3-2.1-0.5-5.1-0.7-9c-0.2-4.6-0.4-7.6-0.5-9c7.2,0.8,15.5,1.3,24.9,1.3c1.5,0,8.5-0.1,20.9-0.2&#xD;&#xA;&#x9;&#x9;c1.3-11.5,2-20.1,2-25.8C411.5,354.9,411.2,351.4,410.5,347.9z M405.7,459.7c-9.9,7.1-17.6,14.8-23.1,23.3c-4.9,7.7-7.4,15-7.4,22&#xD;&#xA;&#x9;&#x9;c0,2.9,0.9,5.2,2.7,6.9c1.4,1.4,3.1,2.1,5.2,2.1c6.6,0,15.7-4.6,27.3-13.7C407.7,483.5,406.1,470,405.7,459.7z M431.8,484.5&#xD;&#xA;&#x9;&#x9;c10.8-12.5,20-26.1,27.3-40.8c-9.9,0.2-20,2-30.2,5.4C429.2,462.2,430.1,474.1,431.8,484.5z"/></g></svg>
