<svg version="1.1" id="number-4" xmlns="http://www.w3.org/2000/svg" xmlns:xlink="http://www.w3.org/1999/xlink" x="0px" y="0px" viewBox="0 0 640 640" enable-background="new 0 0 640 640" xml:space="preserve"><path fill="#FFFFFF" d="M468.1,24.2v-8H171.9c-21.5,0-42,4.4-60.6,12.2C83.3,40.3,59.6,60,42.8,84.8c-16.8,24.8-26.6,54.8-26.6,87&#xD;&#xA;&#x9;l0,296.2c0,21.5,4.4,42,12.2,60.6c11.8,27.9,31.6,51.7,56.4,68.5c24.8,16.8,54.8,26.6,87,26.6h296.2c21.5,0,42-4.4,60.6-12.2&#xD;&#xA;&#x9;c27.9-11.8,51.7-31.6,68.5-56.4c16.8-24.8,26.6-54.8,26.6-87V171.9c0-21.5-4.4-42-12.2-60.6c-11.8-27.9-31.6-51.7-56.4-68.5&#xD;&#xA;&#x9;c-24.8-16.8-54.8-26.6-87-26.6L468.1,24.2v8c19.3,0,37.7,3.9,54.4,11c25.1,10.6,46.4,28.3,61.5,50.6c15.1,22.3,23.8,49.1,23.8,78.1&#xD;&#xA;&#x9;v296.2c0,19.3-3.9,37.7-11,54.4c-10.6,25.1-28.3,46.4-50.6,61.5c-22.3,15.1-49.1,23.8-78.1,23.8H171.9c-19.3,0-37.7-3.9-54.4-11&#xD;&#xA;&#x9;c-25.1-10.6-46.4-28.3-61.5-50.6c-15.1-22.3-23.8-49.1-23.8-78.1V171.9c0-19.3,3.9-37.7,11-54.4c10.6-25.1,28.3-46.4,50.6-61.5&#xD;&#xA;&#x9;c22.3-15.1,49.1-23.8,78.1-23.8h296.2V24.2z"/><g><path fill="#FFFFFF" d="M196.9,76.4v20.3c14.5,1.2,26.3,6.1,35.4,14.8c7.9,7.6,13.2,17.6,15.8,29.9l-27.9,7.8&#xD;&#xA;&#x9;&#x9;c-2.7-18.3-10.5-28.3-23.3-29.9V176c21,5.7,35.5,13.3,43.6,23c7,8.2,10.5,19.1,10.5,33c0,16.6-6,29.5-17.9,38.8&#xD;&#xA;&#x9;&#x9;c-9.4,7.3-21.5,11.5-36.2,12.6v21h-12.2v-21c-31.1-1.5-50.2-17.8-57.4-48.9l27.2-9.2c3.6,21.1,13.7,33,30.2,35.6v-60.9&#xD;&#xA;&#x9;&#x9;c-20-5.2-34.1-12.8-42.3-22.7c-6.6-8.1-9.9-18.5-9.9-31.1c0-15.8,5.8-28.2,17.4-37.3c9.4-7.4,21-11.4,34.8-12.1V76.4H196.9z&#xD;&#xA;&#x9;&#x9; M184.6,119c-8,0.5-14.3,3.3-18.8,8.3c-4.2,4.5-6.2,10.4-6.2,17.5c0,8,2.2,14.2,6.5,18.7c3.9,4.1,10.1,7.2,18.6,9.3V119z&#xD;&#xA;&#x9;&#x9; M196.9,202.7v58.1c9-0.7,15.8-4,20.5-9.9c3.9-5,5.9-11.3,5.9-18.9c0-7.9-2.3-14.1-6.9-18.7C212.4,209.4,205.9,205.8,196.9,202.7z"/></g><g><path fill="#FFFFFF" d="M227.1,340.9V477H253v25.6h-25.9v46.9h-31.3v-46.9h-79v-24l67.4-137.6H227.1z M195.8,477v-45.6&#xD;&#xA;&#x9;&#x9;c0-14.5,0.5-35.7,1.6-63.5h-3.7c-6.2,16.3-13.9,34.3-23.1,54.2L145.1,477H195.8z"/></g><g><path fill="#FFFFFF" d="M382.7,179.3c7.1-0.8,16.3-2.9,27.6-6.2c16.7-4.8,29.1-7.3,37.4-7.3c13.5,0,24,4.6,31.3,13.7&#xD;&#xA;&#x9;&#x9;c6.2,7.9,9.3,18.4,9.3,31.4c0,14.3-4.9,29.1-14.7,44.4c-7.2,11.2-18.2,20.9-33,29.3c-1.7,0.9-3.1,1.4-4.3,1.4&#xD;&#xA;&#x9;&#x9;c-1.6,0-3.3-0.9-5.2-2.8c-3.8-3.8-9.2-7.2-16.3-10.4c10.5-5.5,18.7-10.7,24.5-15.5c5.5-4.7,10.2-10,14-16&#xD;&#xA;&#x9;&#x9;c6.5-10.2,9.7-20.8,9.7-31.8c0-14.5-5.4-21.8-16.3-21.8c-5.7,0-13.1,1.7-22.3,5c-7.2,2.7-13.8,5.8-19.6,9.2c-3.7,2.7-6.1,4-7.3,4&#xD;&#xA;&#x9;&#x9;c-1.9,0-3.7-1.7-5.4-5.2C389.4,195.8,386.3,188.7,382.7,179.3z M420.5,118.5c14.1,5.7,31.9,10.4,53.4,14.2c1.8,0.3,2.7,1.3,2.7,3.1&#xD;&#xA;&#x9;&#x9;c0,0.2,0,0.8-0.1,1.6c-0.2,2.9-1.4,8.3-3.7,16c-0.6,2.2-1.7,3.3-3.2,3.3c-0.2,0-0.3,0-0.6,0c-6.6-0.8-15.9-3-27.8-6.5&#xD;&#xA;&#x9;&#x9;c-10.6-3.2-18.7-6-24.2-8.7c-1.5-0.5-2.3-1.5-2.3-2.8c0-0.5,0.2-1.3,0.5-2.2C416.3,131.7,418.1,125.7,420.5,118.5z"/></g><g><path fill="#FFFFFF" d="M372.9,422.3c6.2-0.6,15.5-2.9,28.1-6.8c23.6-7.9,41.6-11.9,54.1-11.9c16.8,0,29.6,5.7,38.4,17.1&#xD;&#xA;&#x9;&#x9;c7.6,9.8,11.4,22.9,11.4,39.1c0,20.8-6.4,39.6-19.1,56.5c-10.7,14.6-25.9,27.1-45.6,37.6c-1.8,0.8-3.2,1.2-4,1.2&#xD;&#xA;&#x9;&#x9;c-1.8,0-3.7-1-5.7-3.1c-5.8-5.5-12.4-9.7-19.6-12.5c24-11.4,41.3-24.5,51.9-39.5c8.7-12.3,13-26.3,13-41.9c0-10.3-2.2-18-6.6-23.2&#xD;&#xA;&#x9;&#x9;c-3.8-4.4-8.9-6.6-15.5-6.6c-10.9,0-23.3,3.4-37,10.2c-9.6,4.7-16.3,8.5-20.1,11.3c-2.1,1.6-3.8,2.4-5.2,2.4&#xD;&#xA;&#x9;&#x9;c-2.2,0-4.4-1.7-6.7-5.2C381.3,441.8,377.3,433.6,372.9,422.3z M418.7,344.4c18,7.2,40.8,12.8,68.5,16.8c2.2,0.4,3.2,1.5,3.2,3.3&#xD;&#xA;&#x9;&#x9;c0,0.3,0,0.6-0.1,0.9c-1.8,9.2-3.5,16.1-5.2,20.8c-0.7,2.2-1.7,3.3-2.9,3.3c-0.1,0-0.2,0-0.5,0c-25.1-4.2-48-10.2-68.5-18.2&#xD;&#xA;&#x9;&#x9;c-1.2-0.5-1.8-1.5-1.8-3c0-0.5,0.1-1.1,0.2-1.7C412.7,360.9,415,353.5,418.7,344.4z"/></g></svg>
