<svg version="1.1" id="number-5" xmlns="http://www.w3.org/2000/svg" xmlns:xlink="http://www.w3.org/1999/xlink" x="0px" y="0px" viewBox="0 0 640 640" enable-background="new 0 0 640 640" xml:space="preserve"><path fill="#FFFFFF" d="M468.1,24.2v-8H171.9c-21.5,0-42,4.4-60.6,12.2C83.3,40.3,59.6,60,42.8,84.8c-16.8,24.8-26.6,54.8-26.6,87&#xD;&#xA;&#x9;l0,296.2c0,21.5,4.4,42,12.2,60.6c11.8,27.9,31.6,51.7,56.4,68.5c24.8,16.8,54.8,26.6,87,26.6h296.2c21.5,0,42-4.4,60.6-12.2&#xD;&#xA;&#x9;c27.9-11.8,51.7-31.6,68.5-56.4c16.8-24.8,26.6-54.8,26.6-87V171.9c0-21.5-4.4-42-12.2-60.6c-11.8-27.9-31.6-51.7-56.4-68.5&#xD;&#xA;&#x9;c-24.8-16.8-54.8-26.6-87-26.6L468.1,24.2v8c19.3,0,37.7,3.9,54.4,11c25.1,10.6,46.4,28.3,61.5,50.6c15.1,22.3,23.8,49.1,23.8,78.1&#xD;&#xA;&#x9;v296.2c0,19.3-3.9,37.7-11,54.4c-10.6,25.1-28.3,46.4-50.6,61.5c-22.3,15.1-49.1,23.8-78.1,23.8H171.9c-19.3,0-37.7-3.9-54.4-11&#xD;&#xA;&#x9;c-25.1-10.6-46.4-28.3-61.5-50.6c-15.1-22.3-23.8-49.1-23.8-78.1V171.9c0-19.3,3.9-37.7,11-54.4c10.6-25.1,28.3-46.4,50.6-61.5&#xD;&#xA;&#x9;c22.3-15.1,49.1-23.8,78.1-23.8h296.2V24.2z"/><g><path fill="#FFFFFF" d="M141.8,96.7c13.1,0,23.2,4.5,30.3,13.4c6.5,8.2,9.8,19.2,9.8,33.1c0,15.9-4.2,28.1-12.6,36.7&#xD;&#xA;&#x9;&#x9;c-7.1,7.2-16.3,10.7-27.6,10.7c-12.8,0-22.9-4.7-30.1-14c-6.4-8.3-9.6-19.4-9.6-33.2c0-15.9,4.2-28,12.5-36.3&#xD;&#xA;&#x9;&#x9;C121.5,100.1,130.6,96.7,141.8,96.7z M141.8,112.9c-11.3,0-17,10.2-17,30.5c0,20.8,5.7,31.1,17,31.1c11.5,0,17.2-10.4,17.2-31.1&#xD;&#xA;&#x9;&#x9;C159,123.1,153.3,112.9,141.8,112.9z M252.1,96.7l-111,186.6h-14.4L238,96.7H252.1z M237.8,189.3c12.8,0,22.8,4.5,30,13.5&#xD;&#xA;&#x9;&#x9;c6.5,8.2,9.7,19.1,9.7,33c0,16-4.2,28.3-12.6,36.8c-7,7.2-16,10.7-27.1,10.7c-13.2,0-23.3-4.7-30.6-14c-6.5-8.4-9.7-19.6-9.7-33.6&#xD;&#xA;&#x9;&#x9;c0-15.8,4.2-27.9,12.5-36.1C217.1,192.8,226.4,189.3,237.8,189.3z M237.8,205.3c-11.5,0-17.3,10.2-17.3,30.7&#xD;&#xA;&#x9;&#x9;c0,20.8,5.8,31.3,17.3,31.3c11.3,0,17-10.4,17-31.3C254.8,215.6,249.1,205.3,237.8,205.3z"/></g><g><path fill="#FFFFFF" d="M240.4,342.3v27.2h-82l-1.7,41.8c-0.3,7.5-0.8,14.1-1.6,19.6c8-11.9,19.9-17.9,35.5-17.9&#xD;&#xA;&#x9;&#x9;c18.5,0,33.2,7,44.2,21c9.5,12.4,14.3,28,14.3,46.9c0,23.3-6.9,41.6-20.8,55.2c-12,11.6-27.2,17.4-45.5,17.4&#xD;&#xA;&#x9;&#x9;c-17.8,0-32.1-4.2-43.1-12.7c-9.9-7.6-16.5-18.4-19.9-32.4l33.2-10.1c3.6,19.2,13.5,28.8,29.6,28.8c10.5,0,18.6-4.6,24.3-13.7&#xD;&#xA;&#x9;&#x9;c5-8,7.6-18.6,7.6-32c0-14.3-3-25.2-9-32.5c-5.2-6.4-12.3-9.5-21.2-9.5c-14.8,0-24.5,7.8-29.3,23.3l-28.2-4.1l4.1-116.3H240.4z"/></g><g><path fill="#FFFFFF" d="M380,179.1c10.9,0,24.1-1.1,39.5-3.3c19.1-3.4,29.8-5.3,32-5.9c3.2-0.8,5.6-1.8,7.4-2.9&#xD;&#xA;&#x9;&#x9;c1.5-1.1,2.8-1.6,4.2-1.6c0.9,0,2.1,0.5,3.6,1.6c3.8,2,7.7,5.5,11.8,10.4c1.6,1.9,2.4,3.6,2.4,5c0,2-1.3,3.7-4,5&#xD;&#xA;&#x9;&#x9;c-2,1.2-3.9,2.5-5.7,4c-4.2,3.9-10,9.5-17.2,16.6c-6.8,6.7-11.8,11.5-14.8,14.3l3.1-0.2c5.6,0,10.4,2.2,14.3,6.5&#xD;&#xA;&#x9;&#x9;c3.6,3.8,6.2,9.2,7.6,16c1.6,5.9,3.8,9.8,6.5,11.5c2.3,1.5,6.2,2.2,11.8,2.2c8.4,0,18.1-1,29.3-3.1c0.6-0.2,1.1-0.2,1.5-0.2&#xD;&#xA;&#x9;&#x9;c1.5,0,2.5,1.3,3,3.8c0.9,5.5,1.4,11.2,1.4,17.1c0,2.2-1.4,3.5-4.3,3.9c-8.8,1.6-17.8,2.4-27.1,2.4c-14.2,0-24.3-2.2-30.3-6.6&#xD;&#xA;&#x9;&#x9;c-5.2-3.8-8.8-10.4-10.8-19.7c-1.5-6.8-3.3-11.5-5.2-14c-1.5-2-3.5-3-5.9-3c-4,0-9.1,3-15.3,9c-7.2,7.2-16.4,18.1-27.7,32.9&#xD;&#xA;&#x9;&#x9;c-0.9,1.4-1.8,2.1-2.8,2.1c-0.8,0-1.8-0.5-3.1-1.6c-4.5-3.3-9.3-7.3-14.2-11.9c-1.2-1.2-1.8-2.1-1.8-2.5c0-0.6,0.6-1.6,1.8-2.9&#xD;&#xA;&#x9;&#x9;c13.6-13.1,25.8-25,36.5-35.9c3.2-3.4,9.6-10.2,19.4-20.4c7.8-8.1,13.2-13.8,16.3-17.2c-6.5,1.6-19,4.8-37.4,9.7&#xD;&#xA;&#x9;&#x9;c-1.9,0.5-4,1.2-6.1,2.1c-1.8,0.7-3,1.1-3.6,1.3c-1.5,0.8-2.9,1.2-4.2,1.2c-2,0-3.4-1.2-4.3-3.6C385.4,196.8,382.9,189.5,380,179.1&#xD;&#xA;&#x9;&#x9;z M417.8,120.7c17.8,6.5,35.7,11.6,53.6,15.3c2,0.4,3,1.3,3,2.7c0,0.5-0.2,1.4-0.5,2.8c-1.2,5.2-2.8,10.3-5,15.3&#xD;&#xA;&#x9;&#x9;c-0.8,1.8-1.9,2.7-3.3,2.7c-0.5,0-1.2-0.1-2.1-0.3c-17.5-3.2-34.4-8.2-50.8-15.1c-1.6-0.5-2.4-1.3-2.4-2.5c0-0.5,0.1-1.1,0.3-2&#xD;&#xA;&#x9;&#x9;C412,134.5,414.3,128.2,417.8,120.7z"/></g><g><path fill="#FFFFFF" d="M366.3,418.5c15.8,0,32.2-1.3,49.4-3.9c15.5-2.5,29.1-5,41.1-7.6c4.2-1.2,7.4-2.5,9.5-3.8&#xD;&#xA;&#x9;&#x9;c2-1.1,3.7-1.6,5.2-1.6c0.9,0,2.3,0.5,4,1.6c5.2,3.2,9.9,7.4,14,12.6c1.7,1.7,2.5,3.5,2.5,5.4c0,2.2-1.4,4-4.3,5.4&#xD;&#xA;&#x9;&#x9;c-1.5,0.8-4,2.6-7.5,5.4c-14.1,13.3-28.4,27.8-43,43.5c2.5-0.8,5.4-1.2,8.5-1.2c6.4,0,11.8,2.2,16.4,6.5c4.5,4.2,7.6,10,9.3,17.4&#xD;&#xA;&#x9;&#x9;c2.5,10.3,5.5,16.8,9,19.5c3.2,2.5,8.8,3.7,17,3.7c11.8,0,24-1.4,36.7-4.3c0.3-0.1,0.6-0.1,0.9-0.1c1.8,0,2.9,1.2,3.3,3.6&#xD;&#xA;&#x9;&#x9;c1.1,5.8,1.6,12.8,1.6,20.9c0,2.1-1.4,3.3-4.3,3.7c-11.2,2.1-22.8,3.1-34.7,3.1c-18,0-30.7-2.9-38.2-8.7&#xD;&#xA;&#x9;&#x9;c-6.2-4.8-10.4-12.8-12.8-24c-2.2-9.1-4.2-15.1-6.2-18.1c-2.1-3.1-5-4.6-8.7-4.6c-6.8,0-14.2,4-22.3,11.9&#xD;&#xA;&#x9;&#x9;c-8.8,9-20.7,22.9-35.9,41.6c-0.8,1.1-2,1.6-3.3,1.6c-0.8,0-1.7-0.3-2.5-0.9c-4.6-3.2-10.2-8-16.6-14.4c-0.8-0.8-1.2-1.6-1.2-2.4&#xD;&#xA;&#x9;&#x9;c0-1.2,0.6-2.5,1.8-3.7l44.6-45.5c3.6-3.7,9.9-10.4,18.9-20.1c12.3-13.4,21.6-23.5,27.9-30.2c-7.2,1.9-16.2,4.2-27,6.9&#xD;&#xA;&#x9;&#x9;c-11.5,2.9-18.9,4.8-22.1,5.7c-6.8,1.9-11,3.3-12.8,4.3c-1.8,0.9-3.5,1.4-5,1.4c-1.5,0-2.8-1.3-3.9-4&#xD;&#xA;&#x9;&#x9;C373.4,440.4,370.2,431.6,366.3,418.5z M413.7,345c21.3,7.9,43.9,14.2,67.8,18.9c1.9,0.4,2.9,1.5,2.9,3.3c0,0.5-0.1,1.2-0.2,1.8&#xD;&#xA;&#x9;&#x9;c-1.9,7.8-4,14.3-6.3,19.5c-0.7,1.8-1.8,2.7-3.2,2.7c-0.3,0-0.6,0-0.8-0.1c-24.1-4.7-46.1-11.3-66-19.8c-1.5-0.5-2.3-1.5-2.3-3&#xD;&#xA;&#x9;&#x9;c0-0.4,0.1-0.8,0.2-1.3C406.7,363,409.4,355.7,413.7,345z"/></g></svg>
