<svg version="1.1" id="number-6" xmlns="http://www.w3.org/2000/svg" xmlns:xlink="http://www.w3.org/1999/xlink" x="0px" y="0px" viewBox="0 0 640 640" enable-background="new 0 0 640 640" xml:space="preserve"><path fill="#FFFFFF" d="M468.1,24.2v-8H171.9c-21.5,0-42,4.4-60.6,12.2C83.3,40.3,59.6,60,42.8,84.8c-16.8,24.8-26.6,54.8-26.6,87&#xD;&#xA;&#x9;l0,296.2c0,21.5,4.4,42,12.2,60.6c11.8,27.9,31.6,51.7,56.4,68.5c24.8,16.8,54.8,26.6,87,26.6h296.2c21.5,0,42-4.4,60.6-12.2&#xD;&#xA;&#x9;c27.9-11.8,51.7-31.6,68.5-56.4c16.8-24.8,26.6-54.8,26.6-87V171.9c0-21.5-4.4-42-12.2-60.6c-11.8-27.9-31.6-51.7-56.4-68.5&#xD;&#xA;&#x9;c-24.8-16.8-54.8-26.6-87-26.6L468.1,24.2v8c19.3,0,37.7,3.9,54.4,11c25.1,10.6,46.4,28.3,61.5,50.6c15.1,22.3,23.8,49.1,23.8,78.1&#xD;&#xA;&#x9;v296.2c0,19.3-3.9,37.7-11,54.4c-10.6,25.1-28.3,46.4-50.6,61.5c-22.3,15.1-49.1,23.8-78.1,23.8H171.9c-19.3,0-37.7-3.9-54.4-11&#xD;&#xA;&#x9;c-25.1-10.6-46.4-28.3-61.5-50.6c-15.1-22.3-23.8-49.1-23.8-78.1V171.9c0-19.3,3.9-37.7,11-54.4c10.6-25.1,28.3-46.4,50.6-61.5&#xD;&#xA;&#x9;c22.3-15.1,49.1-23.8,78.1-23.8h296.2V24.2z"/><g><path fill="#FFFFFF" d="M261.5,193.9c-2.3,24.8-9.1,43.2-20.3,55.4c4.8,5.5,9.7,9,14.9,10.6c4.2,1.4,10.3,2,18.2,1.8l-5.9,21.3&#xD;&#xA;&#x9;&#x9;h-8.1c-10.2,0-18.2-1.4-24-4.2c-4.7-2.2-9.5-5.9-14.5-11.2c-12.2,10.4-28.4,15.6-48.5,15.6c-19.5,0-35-5.7-46.4-17.1&#xD;&#xA;&#x9;&#x9;c-10-10-15-22.6-15-38c0-13.4,3.6-24.5,10.8-33.3c6.2-7.6,15.5-14.3,28.1-20.2c-9-13.2-13.5-25.5-13.5-36.8&#xD;&#xA;&#x9;&#x9;c0-12.9,4.8-23.3,14.4-31c8.5-6.8,19.2-10.3,32-10.3c14.5,0,25.8,3.9,34.1,11.8c7.3,7,11,16.1,11,27.3c0,12.2-3.9,22.1-11.7,29.6&#xD;&#xA;&#x9;&#x9;c-7,6.7-17.6,12.1-31.8,16.3c12,17.9,25.5,35.6,40.4,53.2c6-10.2,9.5-25.6,10.6-46.4L261.5,193.9z M160.9,190.5&#xD;&#xA;&#x9;&#x9;c-14.2,7.7-21.2,19-21.2,34c0,11.8,4.3,21.4,12.9,28.6c7.4,6.2,16.3,9.2,26.8,9.2c11.8,0,21.3-3.2,28.5-9.6&#xD;&#xA;&#x9;&#x9;C190.4,233.1,174.8,212.3,160.9,190.5z M175.5,166.3c10.5-3.5,17.8-8,21.9-13.5c3.4-4.5,5.1-10.2,5.1-17.3c0-6.1-2-10.9-6-14.5&#xD;&#xA;&#x9;&#x9;c-3.4-3.1-7.6-4.6-12.7-4.6c-5.8,0-10.7,2.1-14.5,6.3c-3.5,3.8-5.2,8.6-5.2,14.2C164.1,145.3,167.9,155.1,175.5,166.3z"/></g><g><path fill="#FFFFFF" d="M246.9,372.6L213.8,385c-2.9-13.6-10.1-20.4-21.6-20.4c-23.9,0-36.4,24.4-37.5,73.3&#xD;&#xA;&#x9;&#x9;c9.5-16.3,23.6-24.4,42.3-24.4c17.4,0,31.1,6.8,41,20.3c8.8,11.9,13.1,27.5,13.1,46.8c0,23.7-6.7,42.3-20,55.7&#xD;&#xA;&#x9;&#x9;c-11.3,11.4-25.7,17.1-43.2,17.1c-22.4,0-39.2-8.9-50.5-26.8c-10.7-16.8-16-41-16-72.7c0-76.7,23.9-115.1,71.7-115.1&#xD;&#xA;&#x9;&#x9;C219.5,338.8,237.4,350.1,246.9,372.6z M154.9,465.9c0,40.9,10.9,61.4,32.6,61.4c19.5,0,29.3-15.2,29.3-45.6c0-28-9.3-42-28-42&#xD;&#xA;&#x9;&#x9;C174.8,439.6,163.5,448.4,154.9,465.9z"/></g><g><path fill="#FFFFFF" d="M409,162.5c0.3-5.3,0.5-11.3,0.5-18.1c-0.4-7.6-1.1-13.5-2.1-17.8c9.5,0.7,17.7,1.7,24.3,3.1&#xD;&#xA;&#x9;&#x9;c3,0.5,4.5,1.9,4.5,4.2c0,0.8-0.5,2-1.4,3.6c-1.6,2.8-2.6,5.3-2.9,7.4c-0.5,7.7-0.9,12.2-1,13.6c2.4-0.5,9.7-2.6,22-6.3&#xD;&#xA;&#x9;&#x9;c0.8-0.2,1.5-0.3,2-0.3c1.2,0,2,0.9,2.3,2.8c0.8,4.7,1.2,9.4,1.2,14.2c0,1.9-1,3.2-3.1,3.9c-8.1,2.8-16.6,5.1-25.5,6.7l-0.2,25&#xD;&#xA;&#x9;&#x9;c16.2-6.5,30.7-9.7,43.5-9.7c12.9,0,23.2,3.9,30.9,11.7c6.8,6.8,10.2,15.7,10.2,26.4c0,13.1-4.2,23-12.5,29.6&#xD;&#xA;&#x9;&#x9;c-7.1,5.7-16.6,8.5-28.6,8.5c-5.2,0-10.3-0.6-15.3-1.8c-2.8-0.8-4.5-3-5-6.5c-1.1-6.4-3.3-12.1-6.7-17.2c9,3,17.4,4.5,25.3,4.5&#xD;&#xA;&#x9;&#x9;c6,0,10.8-1.9,14.3-5.7c3.1-3.4,4.6-7.7,4.6-12.8c0-11.9-6.5-17.9-19.4-17.9c-10.5,0-24,4.1-40.4,12.2c0.1,2,0.6,12.7,1.5,32.2&#xD;&#xA;&#x9;&#x9;c0.8,7.8,1.2,12.8,1.2,15c0,3-1.3,4.8-4,5.5c-5.4,1.5-10,2.3-14,2.3l-8.3-8.3c-5.6-5.8-13.6-11.9-24-18.3c-1.3,0.6-2.7,1.7-4,3.1&#xD;&#xA;&#x9;&#x9;c-1.2,1.1-2.4,1.6-3.8,1.6c-1.5,0-3.1-1.2-5-3.6c-2.4-3.2-5.6-9-9.7-17.7c5.8-1.5,12.1-3.8,18.7-7.2l30-16.7V183&#xD;&#xA;&#x9;&#x9;c-11.6,1.2-21.8,1.7-30.5,1.7c-3.2,0-5-1.5-5.4-4.5c-0.2-1.1-0.7-3.8-1.4-8.2c-0.5-3.1-1-6-1.5-8.9c4.4,0.5,9,0.8,13.8,0.8&#xD;&#xA;&#x9;&#x9;C390.3,164,398.6,163.5,409,162.5z M410.3,235c-7.9,4.4-14.2,8.3-18.7,11.8c8.4,4.2,14.5,7.1,18.5,8.7c0.1,0,0.2,0,0.2,0&#xD;&#xA;&#x9;&#x9;c0.6,0,0.9-0.3,0.9-1c-0.1-1.6-0.2-5-0.5-10.2C410.6,240.2,410.4,237.2,410.3,235z M470.6,164.2c0.8-1.4,2-3.4,3.5-6&#xD;&#xA;&#x9;&#x9;c3-5.4,5.3-9.2,6.9-11.5c0.5-0.7,1.2-1,2-1c0.2,0,0.5,0,0.9,0.1c6.9,1.3,14.7,4.6,23.2,9.8c6.8,4.2,12.3,8.5,16.5,12.9&#xD;&#xA;&#x9;&#x9;c0.6,0.6,0.9,1.3,0.9,2.2c0,0.8-0.2,1.6-0.7,2.5c-2.8,5.4-6.3,10-10.4,14c-0.9,0.9-1.7,1.4-2.4,1.4c-0.8,0-1.6-0.5-2.5-1.4&#xD;&#xA;&#x9;&#x9;C498.4,176.9,485.8,169.3,470.6,164.2z"/></g><g><path fill="#FFFFFF" d="M403.1,401.1l0.2-27c0-7.9-0.5-14.3-1.6-19c11.5,0.7,20.8,2.1,28,4.2c3.2,0.8,4.7,2.3,4.7,4.5&#xD;&#xA;&#x9;&#x9;c0,0.9-0.5,2.2-1.4,3.8c-1.8,3.3-2.9,6.4-3.3,9.2c-0.5,4.5-0.8,11.1-1.2,19.6c8.4-1.7,18.5-4.6,30.3-8.7c0.6-0.2,1.2-0.3,1.6-0.3&#xD;&#xA;&#x9;&#x9;c1.4,0,2.2,0.8,2.4,2.4c0.9,5.9,1.4,12,1.4,18.3c0,1.9-1,3.2-3.1,3.8c-12.5,4-23.8,7-33.8,9l-0.5,34.3c21-9,40.4-13.3,58.1-13&#xD;&#xA;&#x9;&#x9;c15.8,0.2,28.5,5.1,37.8,14.8c8.3,8.5,12.5,19.3,12.5,32.4c0,16.2-5.2,28.5-15.5,36.9c-9,7.4-20.9,11.1-35.8,11.1&#xD;&#xA;&#x9;&#x9;c-7,0-13.5-0.7-19.4-2.1c-3.5-0.9-5.2-3.3-5.2-7.2c-0.8-7.8-3.2-14.5-7.2-20c8.5,2.8,18.3,4.2,29.5,4.2c7.7,0,13.9-2.2,18.6-6.7&#xD;&#xA;&#x9;&#x9;c4.6-4.4,6.9-10.3,6.9-17.6c0-8.2-2.6-14.3-7.7-18.5c-4.5-3.6-10.5-5.4-18.2-5.4c-15.2,0-33.3,5.4-54.1,16.1&#xD;&#xA;&#x9;&#x9;c0.2,10.1,0.5,19.5,0.9,28.4c1.3,18.4,2,28.6,2,30.7c0,2.7-0.1,4.4-0.3,5.1c-0.5,1.4-1.5,2.3-3.2,2.7c-5.8,1.6-11.7,2.6-17.4,2.9&#xD;&#xA;&#x9;&#x9;c-1.5,0.2-3.5-1.4-5.8-4.7c-7.1-9.8-18.3-19.8-33.6-30.2c-2.9,1.6-5.4,3.3-7.5,5.2c-1.2,1.1-2.5,1.6-4,1.6c-1.9,0-3.7-1.3-5.2-3.8&#xD;&#xA;&#x9;&#x9;c-2.4-3.8-6-11.1-10.8-21.9c7.6-1.8,14.8-4.5,21.7-8.3c7.2-3.9,20-11.2,38.5-21.9v-40.4c-15.8,1.2-29,1.8-39.7,1.8&#xD;&#xA;&#x9;&#x9;c-3.4,0-5.3-1.7-5.7-5c-0.6-3.8-1.5-10.6-2.7-20.5c5.2,0.8,11.3,1.2,18.5,1.2C379.9,403,389.9,402.3,403.1,401.1z M403.8,490.6&#xD;&#xA;&#x9;&#x9;c-10,6.8-17.7,12.1-23.1,16c8.2,4.4,15.5,7.9,22.1,10.6c0.5,0.2,1,0.2,1.3,0.2c0.8,0,1.2-0.5,1.2-1.4c0-0.2,0-0.5-0.1-0.7&#xD;&#xA;&#x9;&#x9;c-0.2-2.4-0.4-6.6-0.7-12.7C404.2,496.6,403.9,492.5,403.8,490.6z M482.8,401.1c2.7-5.6,6.3-11.8,10.8-18.5c1.2-2,2.3-3,3.1-3&#xD;&#xA;&#x9;&#x9;c0.2,0,0.5,0,0.9,0.1c20.4,6,37.1,15.6,50.1,28.8c0.9,1,1.4,1.8,1.4,2.4c0,0.3-0.3,1.1-0.9,2.3c-1.3,2-3.5,5-6.7,9&#xD;&#xA;&#x9;&#x9;c-3.5,4.5-5.5,7.1-6.1,7.8c-0.4,0.5-1.2,0.8-2.5,0.8c-1.2,0-1.9-0.3-2.2-0.8C519.6,417.9,503.6,408.2,482.8,401.1z"/></g></svg>
