<svg version="1.1" id="number-7" xmlns="http://www.w3.org/2000/svg" xmlns:xlink="http://www.w3.org/1999/xlink" x="0px" y="0px" viewBox="0 0 640 640" enable-background="new 0 0 640 640" xml:space="preserve"><path fill="#FFFFFF" d="M468.1,24.2v-8H171.9c-21.5,0-42,4.4-60.6,12.2C83.3,40.3,59.6,60,42.8,84.8c-16.8,24.8-26.6,54.8-26.6,87&#xD;&#xA;&#x9;l0,296.2c0,21.5,4.4,42,12.2,60.6c11.8,27.9,31.6,51.7,56.4,68.5c24.8,16.8,54.8,26.6,87,26.6h296.2c21.5,0,42-4.4,60.6-12.2&#xD;&#xA;&#x9;c27.9-11.8,51.7-31.6,68.5-56.4c16.8-24.8,26.6-54.8,26.6-87V171.9c0-21.5-4.4-42-12.2-60.6c-11.8-27.9-31.6-51.7-56.4-68.5&#xD;&#xA;&#x9;c-24.8-16.8-54.8-26.6-87-26.6L468.1,24.2v8c19.3,0,37.7,3.9,54.4,11c25.1,10.6,46.4,28.3,61.5,50.6c15.1,22.3,23.8,49.1,23.8,78.1&#xD;&#xA;&#x9;v296.2c0,19.3-3.9,37.7-11,54.4c-10.6,25.1-28.3,46.4-50.6,61.5c-22.3,15.1-49.1,23.8-78.1,23.8H171.9c-19.3,0-37.7-3.9-54.4-11&#xD;&#xA;&#x9;c-25.1-10.6-46.4-28.3-61.5-50.6c-15.1-22.3-23.8-49.1-23.8-78.1V171.9c0-19.3,3.9-37.7,11-54.4c10.6-25.1,28.3-46.4,50.6-61.5&#xD;&#xA;&#x9;c22.3-15.1,49.1-23.8,78.1-23.8h296.2V24.2z"/><g><path fill="#FFFFFF" d="M205.1,93.3l-15.5,36.9h17.1v31.8h-33.8v-31.6L190,93.3H205.1z"/></g><g><path fill="#FFFFFF" d="M247.2,342.3v24.1c-18.4,29.7-32,60-41,91c-7.9,27.3-13,58-15.3,92.2h-38.2c3-36.5,10.6-70.8,22.7-102.8&#xD;&#xA;&#x9;&#x9;c9.4-24.6,22.3-50.2,38.9-76.8h-93.1v-27.7H247.2z"/></g><g><path fill="#FFFFFF" d="M379.3,140.5c12.6-2.2,21.8-3.3,27.5-3.3c2.7,0,4,1.7,4,5l-0.1,2.9c0,1,0.1,1.9,0.3,2.8&#xD;&#xA;&#x9;&#x9;c0.5,3.4,1.2,6.5,2.3,9.5c1.1,3.6,2.5,8,4.3,13c13.2-5,24-8.8,32.6-11.3c10.2-3.3,21-5,32.6-5c12.9,0,23.1,3.6,30.5,10.8&#xD;&#xA;&#x9;&#x9;c6.5,6.2,9.7,14.3,9.7,24.3c0,13.4-4.8,23.6-14.5,30.6c-8.5,6.1-19.8,9.1-34.1,9.1c-2.7,0-5.5-0.2-8.3-0.5c-3-0.2-5-1.7-6.1-4.3&#xD;&#xA;&#x9;&#x9;c-3.3-8.6-6.6-15.1-9.9-19.4c8.2,1.2,15.5,1.8,21.9,1.8c17.7,0,26.5-6.3,26.5-18.8c0-4.3-1.7-7.8-5-10.5c-3-2.5-6.7-3.7-11.1-3.7&#xD;&#xA;&#x9;&#x9;c-8.8,0-18.2,1.7-28.4,5.2c-11.2,4.1-20.8,7.9-28.8,11.5c10.9,30.9,20.2,57.5,27.9,79.8c0.6,1.3,0.9,2.3,0.9,3.1&#xD;&#xA;&#x9;&#x9;c0,1.3-1,2.6-2.9,3.8c-4.2,2.1-9.8,4.1-17,6.1c-0.4,0.2-0.8,0.2-1.2,0.2c-1.3,0-2.1-1-2.4-2.9c-7.1-24.8-15.7-51.7-26-80.5&#xD;&#xA;&#x9;&#x9;c-0.5,0.2-1.6,0.7-3.1,1.5c-3.5,1.7-6.5,3-8.8,3.9c-5.1,2.5-9.7,5.2-14,8.1c-1.9,1.4-3.2,2.1-3.9,2.1c-1.2,0-2.7-1-4.5-3.1&#xD;&#xA;&#x9;&#x9;c-2.9-3.4-7.3-10.1-13-20.2c4.8-0.8,11-2.3,18.5-4.7c6.8-2.3,13.7-5,20.5-8.1c-3.8-11.3-6.5-18.9-8.1-22.7&#xD;&#xA;&#x9;&#x9;C385.6,150.3,382.6,144.9,379.3,140.5z M430.2,134.1c7.1-5.7,12.3-9.6,15.6-11.8c1.1-0.8,1.9-1.2,2.5-1.2c0.5,0,1.3,0.4,2.4,1.2&#xD;&#xA;&#x9;&#x9;c8,5,14.4,10.5,19.1,16.6c0.9,0.9,1.4,1.8,1.4,2.8c0,1-0.5,1.9-1.4,2.7c-2,1.9-6.3,5.3-12.8,10.2c-0.9,0.6-1.6,0.9-2.1,0.9&#xD;&#xA;&#x9;&#x9;c-0.4,0-1.1-0.4-2.2-1.2C444.4,145,436.9,138.3,430.2,134.1z"/></g><g><path fill="#FFFFFF" d="M413,412.2c17.5-6.8,31.9-12,43-15.3c13.8-4.4,27.7-6.6,41.5-6.6c16.1,0,28.8,4.6,38.1,13.7&#xD;&#xA;&#x9;&#x9;c7.8,7.8,11.8,17.8,11.8,30c0,16.4-6.1,28.9-18.2,37.6c-10.6,7.7-24.8,11.5-42.7,11.5c-4.9,0-8.4-0.1-10.4-0.2&#xD;&#xA;&#x9;&#x9;c-3.4-0.2-5.5-1.7-6.3-4.3c-3.2-9.7-7-17.3-11.7-22.7c9.8,1.6,18.6,2.4,26.2,2.4c11.7,0,20.7-2.6,27.1-7.8&#xD;&#xA;&#x9;&#x9;c5.5-4.6,8.3-10.7,8.3-18.3c0-6.6-2.5-11.6-7.5-15c-4.2-2.9-9.9-4.4-17.1-4.4c-9.5,0-21.2,2.2-35,6.6c-13.5,4.6-26.4,9.8-38.9,15.6&#xD;&#xA;&#x9;&#x9;c17.8,50.3,30,85.3,36.6,105.1c0.4,1.3,0.6,2.2,0.6,2.8c0,1-0.9,2-2.8,2.9c-5.2,2.7-11.9,5.2-20.3,7.6c-0.2,0-0.5,0-0.7,0&#xD;&#xA;&#x9;&#x9;c-1,0-1.8-0.9-2.3-2.7c-11.4-38.6-22.7-73.6-34-104.9c-1.4,0.7-5.8,2.8-13.2,6.2c-4,1.9-7.1,3.4-9.3,4.4c-4.6,2.2-8.7,4.7-12.2,7.3&#xD;&#xA;&#x9;&#x9;c-1.8,1.6-3.3,2.4-4.5,2.4c-1.8,0-3.7-1.2-5.7-3.6c-2.3-2.8-7.1-10.5-14.4-23.1c8.1-1.5,15.8-3.5,23.2-6.1&#xD;&#xA;&#x9;&#x9;c9.6-3.5,18.7-7.2,27.3-11c-3.2-9.5-6.8-19.7-10.8-30.5c-2.7-6.9-6.3-13.5-10.8-19.6c11.2-2.4,21.8-3.6,31.6-3.6&#xD;&#xA;&#x9;&#x9;c2.4,0,3.6,1.7,3.6,5c0,1.1,0.3,3.7,0.9,7.8c0.3,1.2,1,3.8,2.1,8.1c0.8,3.3,1.7,6.7,2.7,10.2C409.7,403.3,411.2,407.5,413,412.2z&#xD;&#xA;&#x9;&#x9; M431.9,362.3c8.8-6.9,14.9-11.4,18.2-13.5c1-0.6,1.8-0.9,2.5-0.9c0.7,0,1.6,0.3,2.7,0.9c11.2,7.4,19.6,14.5,25.5,21.5&#xD;&#xA;&#x9;&#x9;c0.8,1.1,1.2,2,1.2,2.7s-0.4,1.5-1.2,2.5c-4.2,4.8-9.4,9.1-15.6,13c-1,0.6-1.7,0.9-2.2,0.9c-0.5,0-1.1-0.4-1.8-1.2&#xD;&#xA;&#x9;&#x9;C451.1,376.8,441.4,368.2,431.9,362.3z"/></g></svg>
