<svg version="1.1" id="number-8" xmlns="http://www.w3.org/2000/svg" xmlns:xlink="http://www.w3.org/1999/xlink" x="0px" y="0px" viewBox="0 0 640 640" enable-background="new 0 0 640 640" xml:space="preserve"><path fill="#FFFFFF" d="M468.1,24.2v-8H171.9c-21.5,0-42,4.4-60.6,12.2C83.3,40.3,59.6,60,42.8,84.8c-16.8,24.8-26.6,54.8-26.6,87&#xD;&#xA;&#x9;l0,296.2c0,21.5,4.4,42,12.2,60.6c11.8,27.9,31.6,51.7,56.4,68.5c24.8,16.8,54.8,26.6,87,26.6h296.2c21.5,0,42-4.4,60.6-12.2&#xD;&#xA;&#x9;c27.9-11.8,51.7-31.6,68.5-56.4c16.8-24.8,26.6-54.8,26.6-87V171.9c0-21.5-4.4-42-12.2-60.6c-11.8-27.9-31.6-51.7-56.4-68.5&#xD;&#xA;&#x9;c-24.8-16.8-54.8-26.6-87-26.6L468.1,24.2v8c19.3,0,37.7,3.9,54.4,11c25.1,10.6,46.4,28.3,61.5,50.6c15.1,22.3,23.8,49.1,23.8,78.1&#xD;&#xA;&#x9;v296.2c0,19.3-3.9,37.7-11,54.4c-10.6,25.1-28.3,46.4-50.6,61.5c-22.3,15.1-49.1,23.8-78.1,23.8H171.9c-19.3,0-37.7-3.9-54.4-11&#xD;&#xA;&#x9;c-25.1-10.6-46.4-28.3-61.5-50.6c-15.1-22.3-23.8-49.1-23.8-78.1V171.9c0-19.3,3.9-37.7,11-54.4c10.6-25.1,28.3-46.4,50.6-61.5&#xD;&#xA;&#x9;c22.3-15.1,49.1-23.8,78.1-23.8h296.2V24.2z"/><g><path fill="#FFFFFF" d="M232.6,79.4c-16,18.2-27.3,37.1-33.8,56.5c-5.4,16-8.1,34-8.1,53.9c0,22.8,3.6,43.2,10.7,61.1&#xD;&#xA;&#x9;&#x9;c6.6,16.7,17,33.1,31.1,49.1l-7.2,6.7c-20.8-18.5-35.6-37.9-44.5-58.3c-7.8-17.6-11.7-37.2-11.7-58.7c0-24.3,5.1-46.4,15.3-66.2&#xD;&#xA;&#x9;&#x9;c9.2-17.5,22.8-34.5,40.8-50.8L232.6,79.4z"/></g><g><path fill="#FFFFFF" d="M211.1,438.4c15.8,7.5,26.8,16.1,33,25.7c5.4,8.4,8.1,19,8.1,31.7c0,18.5-6.9,33-20.7,43.6&#xD;&#xA;&#x9;&#x9;c-11.9,9.3-27.3,13.9-46.1,13.9c-22,0-39.1-5.7-51.2-17.1c-10.6-10-15.9-23.1-15.9-39.4c0-12.5,3.7-22.9,11-31.3&#xD;&#xA;&#x9;&#x9;c6.2-7.1,15.9-13.9,29.2-20.4c-13.3-6.9-22.8-15.1-28.4-24.5c-4.6-7.9-6.9-17.3-6.9-28.4c0-16.3,6.4-29.5,19.2-39.8&#xD;&#xA;&#x9;&#x9;c11.4-9.1,25.6-13.7,42.7-13.7c19.6,0,35.3,5.5,47.1,16.6c10.3,9.5,15.4,21.5,15.4,35.8C247.6,412.7,235.4,428.4,211.1,438.4z&#xD;&#xA;&#x9;&#x9; M179.1,455.5c-10.5,5.8-18,11.9-22.4,18.3c-4.1,5.9-6.1,12.9-6.1,21c0,10.8,3.5,19.3,10.5,25.5c6.2,5.5,14.2,8.2,24,8.2&#xD;&#xA;&#x9;&#x9;c11.5,0,20.3-3.2,26.5-9.5c5.5-5.6,8.2-12.9,8.2-22c0-8.7-2.7-15.9-8.1-21.6c-4.9-5-13.1-10.3-24.8-15.9L179.1,455.5z M191.1,428.6&#xD;&#xA;&#x9;&#x9;c9.5-5,16-10.5,19.8-16.7c3.1-5.2,4.6-11.7,4.6-19.4c0-9.3-3.3-16.6-9.8-22c-5.5-4.5-12.3-6.8-20.6-6.8c-9.5,0-17.1,2.8-22.5,8.5&#xD;&#xA;&#x9;&#x9;c-4.9,5-7.3,11.6-7.3,19.8c0,7.7,2.3,14.1,7,19.1c4.2,4.7,11.3,9.4,21.2,14.1L191.1,428.6z"/></g><g><path fill="#FFFFFF" d="M372,130.5c11,2.2,18.7,4.3,23.1,6.3c2.4,0.9,3.6,2,3.6,3.3c0,1.2-0.5,2.8-1.6,4.7c-0.8,1.7-1.7,4-2.7,6.8&#xD;&#xA;&#x9;&#x9;c-2.2,11.2-3.7,20.3-4.5,27.5c-0.3,5.4-0.6,10.7-0.9,15.8c5.7-11.8,12.8-21.5,21.2-29.3c10.8-9.8,23.3-16.3,37.6-19.6&#xD;&#xA;&#x9;&#x9;c-1.1-7.7-2-13.5-2.8-17.3c-1-4.5-2.8-8.5-5.3-12.2c3.5-0.4,6.9-0.6,10.4-0.6c4.2,0,8.6,0.3,13.3,0.8c3.8,0.4,5.7,1.7,5.7,3.8v4.5&#xD;&#xA;&#x9;&#x9;c0,2.7,0.1,5.1,0.2,7.3c0.4,3,0.9,7,1.5,12.1h1.8c14,0,25.6,5.1,34.7,15.3c7.9,8.9,11.9,19.6,11.9,32.1c0,17.9-6.5,31.7-19.6,41.4&#xD;&#xA;&#x9;&#x9;c-9.7,7.5-21.3,11.3-35,11.3H462c-7.8,13.4-16.4,23.2-26,29.5c-1.8,1.2-3.4,1.8-5,1.8c-1.5,0-3-0.5-4.3-1.6&#xD;&#xA;&#x9;&#x9;c-3.5-2.5-9.2-5.3-17.3-8.3c13.4-7.2,23.2-15.6,29.5-25.3c-4.9-1.8-9.5-4.6-13.8-8.2c-3.9-3.5-6.8-7-8.8-10.5&#xD;&#xA;&#x9;&#x9;c-0.6-1-0.9-2.1-0.9-3.2c0-1.1,0.4-2.3,1.2-3.6c3.1-4.7,5.3-9.7,6.8-15.1c4,7.1,8.2,12.1,12.6,15.1c3.7,2.5,7.5,4.3,11.3,5.4&#xD;&#xA;&#x9;&#x9;c1.8-7.5,2.8-18.1,2.8-31.6c0-8.8-0.3-16.6-0.9-23.4c-6.2,1.6-11.7,3.9-16.5,6.9c-4,2.5-8.7,6.4-14.2,11.5&#xD;&#xA;&#x9;&#x9;c-9.2,8.8-16.2,19.1-21.1,30.9c-2.2,5.7-3.2,11.5-3.2,17.5c0,1.6,0.1,3.3,0.3,5c0,0.3,0,0.5,0,0.6c0,1.6-1,2.7-3.1,3.3&#xD;&#xA;&#x9;&#x9;c-4.8,1.5-9.7,2.3-14.7,2.7c-2.1,0-3.3-1.2-3.8-3.6c-3-10.3-4.5-22.6-4.5-37c0-13.6,1.1-30,3.3-49.1c0.8-6.1,1.2-11.1,1.2-15.1&#xD;&#xA;&#x9;&#x9;C373,135.6,372.7,132.7,372,130.5z M469.9,222.7c5.1-0.5,9.8-2.4,14.1-5.5c8.4-5.9,12.6-14.7,12.6-26.2c0-15.9-8.1-24.7-24.3-26.4&#xD;&#xA;&#x9;&#x9;c0.6,11.4,0.9,19.9,0.9,25.5C473.1,202.3,472,213.2,469.9,222.7z"/></g><g><path fill="#FFFFFF" d="M455.1,391c-0.8-7.1-2-14.3-3.3-21.6c-1.8-7.3-3.9-12.7-6.1-16.3c4.3-0.4,8.3-0.6,11.9-0.6&#xD;&#xA;&#x9;&#x9;c5.2,0,10.4,0.5,15.6,1.4c3.6,0.6,5.4,2.1,5.4,4.5l-0.6,5.5c0,0.3,0,0.6,0,0.8c1.5,9.5,2.5,17.6,3.1,24.6h3.8&#xD;&#xA;&#x9;&#x9;c17.2,0,31.5,6.5,42.9,19.4c10,11.2,15,24.6,15,40.1c0,22.5-8.1,39.8-24.3,51.9c-6,4.6-13.2,8.2-21.6,10.7&#xD;&#xA;&#x9;&#x9;c-7.4,2.3-14.6,3.5-21.7,3.5h-4.3c-9.2,16.2-20.3,29-33.3,38.3c-2.1,1.5-4,2.3-5.7,2.3c-1.5,0-3-0.7-4.7-2.1&#xD;&#xA;&#x9;&#x9;c-5.9-4.5-12.1-7.7-18.5-9.7c15.7-9.4,27.5-20.4,35.5-33.1c-8.2-2.7-15-6.5-20.5-11.5c-5.5-4.9-9.5-10.3-12.1-16&#xD;&#xA;&#x9;&#x9;c-0.6-1.6-0.9-2.7-0.9-3.1c0-0.8,0.5-2.1,1.6-3.8c3.3-5.2,6-11.5,8.1-18.7c4.3,9.6,9.3,16.9,14.9,21.8c6.2,5.2,12.5,8.4,18.7,9.7&#xD;&#xA;&#x9;&#x9;c2.8-12.1,4.3-26.6,4.3-43.7c0-9.5-0.5-20.2-1.5-32c-14.5,3.2-28.5,11.3-42,24.3c-12.8,12.8-21.8,26.3-27.2,40.7&#xD;&#xA;&#x9;&#x9;c-2.8,7.8-4.3,15.5-4.3,23c0,2,0.1,3.9,0.2,5.8c0.2,2.2-1.3,3.6-4.5,4.3c-2.2,0.8-7.7,1.8-16.5,3.1c-2.4,0-3.8-1.3-4.3-3.8&#xD;&#xA;&#x9;&#x9;c-3.6-13.6-5.4-29.3-5.4-47c0-15.2,1.3-35.3,4-60.1c0.9-11,1.4-18.5,1.4-22.6c0-4.6-0.2-7.8-0.7-9.7c13.2,2.6,22.3,5.2,27.1,7.7&#xD;&#xA;&#x9;&#x9;c2.2,0.8,3.3,2.3,3.3,4.5c0,0.9-0.3,2.3-0.9,4.3c-1.7,3.1-2.9,6.2-3.6,9.2c-2.4,11.8-4.3,23.6-5.7,35.4c-0.8,8.7-1.3,17.8-1.6,27.2&#xD;&#xA;&#x9;&#x9;c7.6-18.7,17.5-33.4,29.8-44.2C419.7,403.1,436.1,394.9,455.1,391z M479.7,491.1c7.6-0.3,14.6-2.9,21-7.7&#xD;&#xA;&#x9;&#x9;c10.8-8.2,16.2-20.1,16.2-35.8c0-21.4-11.3-33.3-33.9-35.6c0.7,14.8,1,26.3,1,34.5C483.9,463,482.5,477.9,479.7,491.1z"/></g></svg>
