<svg version="1.1" id="number-9" xmlns="http://www.w3.org/2000/svg" xmlns:xlink="http://www.w3.org/1999/xlink" x="0px" y="0px" viewBox="0 0 640 640" enable-background="new 0 0 640 640" xml:space="preserve"><path fill="#FFFFFF" d="M468.1,24.2v-8H171.9c-21.5,0-42,4.4-60.6,12.2C83.3,40.3,59.6,60,42.8,84.8c-16.8,24.8-26.6,54.8-26.6,87&#xD;&#xA;&#x9;l0,296.2c0,21.5,4.4,42,12.2,60.6c11.8,27.9,31.6,51.7,56.4,68.5c24.8,16.8,54.8,26.6,87,26.6h296.2c21.5,0,42-4.4,60.6-12.2&#xD;&#xA;&#x9;c27.9-11.8,51.7-31.6,68.5-56.4c16.8-24.8,26.6-54.8,26.6-87V171.9c0-21.5-4.4-42-12.2-60.6c-11.8-27.9-31.6-51.7-56.4-68.5&#xD;&#xA;&#x9;c-24.8-16.8-54.8-26.6-87-26.6L468.1,24.2v8c19.3,0,37.7,3.9,54.4,11c25.1,10.6,46.4,28.3,61.5,50.6c15.1,22.3,23.8,49.1,23.8,78.1&#xD;&#xA;&#x9;v296.2c0,19.3-3.9,37.7-11,54.4c-10.6,25.1-28.3,46.4-50.6,61.5c-22.3,15.1-49.1,23.8-78.1,23.8H171.9c-19.3,0-37.7-3.9-54.4-11&#xD;&#xA;&#x9;c-25.1-10.6-46.4-28.3-61.5-50.6c-15.1-22.3-23.8-49.1-23.8-78.1V171.9c0-19.3,3.9-37.7,11-54.4c10.6-25.1,28.3-46.4,50.6-61.5&#xD;&#xA;&#x9;c22.3-15.1,49.1-23.8,78.1-23.8h296.2V24.2z"/><g><path fill="#FFFFFF" d="M154.4,72.8c20.6,18.5,35.4,38,44.4,58.5c7.8,17.7,11.7,37.2,11.7,58.5c0,24.5-5.1,46.7-15.2,66.4&#xD;&#xA;&#x9;&#x9;c-9.1,17.5-22.7,34.3-40.8,50.5l-7.3-6.7c16.1-18.2,27.3-37,33.8-56.4c5.4-15.9,8.1-33.9,8.1-53.9c0-22.9-3.5-43.3-10.6-61.1&#xD;&#xA;&#x9;&#x9;c-6.7-16.8-17.1-33.3-31.3-49.3L154.4,72.8z"/></g><g><path fill="#FFFFFF" d="M157.7,507.5c3.6,13.2,10.9,19.8,21.7,19.8c12.7,0,22.1-6.3,28.2-19c5.7-11.9,8.8-30.2,9.4-54.9&#xD;&#xA;&#x9;&#x9;c-8.8,16.4-22.9,24.7-42.3,24.7c-17.2,0-31-6.8-41.4-20.4c-9.2-12.1-13.8-27.6-13.8-46.4c0-23.9,6.4-42.3,19.2-55.4&#xD;&#xA;&#x9;&#x9;c11-11.3,25.5-17,43.2-17c22.8,0,39.9,9,51.3,26.9c10.7,16.7,16,40.8,16,72.4c0,42.8-7,73.6-21.1,92.3&#xD;&#xA;&#x9;&#x9;c-11.5,15.3-28,22.9-49.6,22.9c-27.9,0-46.1-11.1-54.5-33.4L157.7,507.5z M215.5,425.9c-0.3-40.8-11-61.1-32.1-61.1&#xD;&#xA;&#x9;&#x9;c-19.5,0-29.3,15.2-29.3,45.6c0,13.9,2.9,24.5,8.8,32c5,6.4,11.6,9.5,19.8,9.5C196.9,451.9,207.9,443.3,215.5,425.9z"/></g><g><path fill="#FFFFFF" d="M450.6,156.5c14.2-1.3,27.5-3.9,39.7-7.7c1-0.4,1.8-0.6,2.3-0.6c1.1,0,1.8,0.7,2.2,2&#xD;&#xA;&#x9;&#x9;c1.5,4.1,2.9,9.3,4.3,15.6c0.2,0.8,0.3,1.5,0.3,2c0,1.1-0.7,1.8-2.2,2.3c-11.5,3.7-26.9,6.4-46.1,8.2c0.4,9.9,1.4,23,3.1,39.2&#xD;&#xA;&#x9;&#x9;c17.4,5.2,35.1,13.8,53.2,25.6c1.1,0.7,1.6,1.4,1.6,2.2c0,0.5-0.2,1.2-0.7,2.3c-3,6.3-6.3,11.6-9.9,15.8c-1,1.2-1.9,1.7-2.7,1.7&#xD;&#xA;&#x9;&#x9;c-0.5,0-1.2-0.3-1.8-0.8c-13.7-11.4-26.8-19.4-39.2-24.1v3.3c0,9.9-3.9,17.6-11.7,23c-6.8,4.7-16.1,7-27.8,7&#xD;&#xA;&#x9;&#x9;c-13,0-23.2-3.2-30.7-9.7c-6.3-5.4-9.5-12.1-9.5-20.1c0-9.3,4.2-16.8,12.5-22.6c7.4-5.2,16.5-7.8,27.5-7.8c6.8,0,12.3,0.2,16.5,0.7&#xD;&#xA;&#x9;&#x9;c-1.2-11.6-2.2-29-3-52.3c-0.3-7.4-0.6-17.1-0.9-29.3c-0.3-8.3-1.3-14.3-2.9-17.9c11.7,0.8,20.3,1.8,25.7,3.2&#xD;&#xA;&#x9;&#x9;c2.5,0.5,3.8,1.7,3.8,3.6c0,1.1-0.3,2.4-0.9,4c-1.4,3.9-2.2,7.1-2.4,9.5C450.7,138.6,450.6,145.8,450.6,156.5z M432,234.5&#xD;&#xA;&#x9;&#x9;c-4.8-1.1-10.2-1.6-16.1-1.6c-6.5,0-11.8,1.1-15.8,3.2c-3.5,1.8-5.2,4.2-5.2,6.9c0,6.3,6.3,9.5,18.9,9.5c6,0,10.7-1.5,14-4.5&#xD;&#xA;&#x9;&#x9;c2.8-2.6,4.3-6,4.3-10.2V234.5z"/></g><g><path fill="#FFFFFF" d="M454,405.8c19.9-1.7,37.9-5.3,53.9-10.7c0.4-0.1,0.7-0.1,1-0.1c0.8,0,1.5,0.5,1.8,1.6&#xD;&#xA;&#x9;&#x9;c2.9,8.8,4.8,15.5,5.7,20.1c0.1,0.4,0.1,0.8,0.1,1.2c0,1.2-0.7,2-2.1,2.4c-18.4,5-38.3,8.5-59.8,10.6c0.4,14.3,1.7,32.5,4,54.6&#xD;&#xA;&#x9;&#x9;c23.1,6.7,46,16.8,68.5,30.5c1,0.6,1.5,1.3,1.5,2.2c0,0.5-0.2,1.1-0.6,1.8c-3.5,7.5-7.7,14.1-12.5,19.8c-1,1-1.8,1.5-2.3,1.5&#xD;&#xA;&#x9;&#x9;c-0.5,0-1-0.3-1.7-0.8c-16.8-12.4-34.3-22.3-52.5-29.8c0,2.4-0.1,4.2-0.2,5.4c-0.5,11.5-5.2,20.3-14,26.5&#xD;&#xA;&#x9;&#x9;c-8.3,5.9-19.6,8.9-33.8,8.9c-15.8,0-28.4-3.5-37.7-10.4c-8.4-6.3-12.6-14.4-12.6-24.3c0-11.2,5.6-20.3,16.8-27.2&#xD;&#xA;&#x9;&#x9;c9.5-5.9,21.2-8.9,35-8.9c9.7,0,16.3,0.2,19.8,0.7c-2.2-22.8-3.5-48.1-4-75.8c-0.2-5.7-0.4-16.6-0.7-32.6&#xD;&#xA;&#x9;&#x9;c-0.3-8.9-1.4-16.1-3.3-21.5c10.3,0.7,20.4,2.1,30.2,4.3c2.5,0.6,3.8,1.9,3.8,3.9c0,1.1-0.4,2.3-1.2,3.6c-1.5,2.5-2.4,6.7-2.9,12.8&#xD;&#xA;&#x9;&#x9;C454.1,380.8,454,390.7,454,405.8z M433,504.4c-8.2-1.6-15.4-2.4-21.8-2.4c-8.8,0-15.7,1.4-20.6,4.3c-4.3,2.5-6.5,5.7-6.5,9.7&#xD;&#xA;&#x9;&#x9;c0,8,8.1,12,24.3,12c8.5,0,15-2.2,19.5-6.7c3.5-3.4,5.3-7.5,5.3-12.3c0-0.5,0-1,0-1.3L433,504.4z"/></g></svg>
